<?xml version="1.0" encoding="UTF-8" standalone="no"?>
<!DOCTYPE svg PUBLIC "-//W3C//DTD SVG 1.1//EN"
 "http://www.w3.org/Graphics/SVG/1.1/DTD/svg11.dtd">
<!-- Generated by graphviz version 2.38.0 (20140413.2041)
 -->
<!-- Title: controllers_diagram Pages: 1 -->
<svg width="614pt" height="636pt"
 viewBox="0.00 0.00 613.50 636.00" xmlns="http://www.w3.org/2000/svg" xmlns:xlink="http://www.w3.org/1999/xlink">
<g id="graph0" class="graph" transform="scale(1 1) rotate(0) translate(220 416)">
<title>controllers_diagram</title>
<polygon fill="none" stroke="none" points="-220,220 -220,-416 393.5,-416 393.5,220 -220,220"/>
<!-- _diagram_info -->
<g id="node1" class="node"><title>_diagram_info</title>
<text text-anchor="start" x="116.5" y="152.4" font-family="Times New Roman,serif" font-size="13.00">Controllers diagram</text>
<text text-anchor="start" x="116.5" y="166.4" font-family="Times New Roman,serif" font-size="13.00">Date: Mar 22 2016 &#45; 12:40</text>
<text text-anchor="start" x="116.5" y="180.4" font-family="Times New Roman,serif" font-size="13.00">Migration version: 20160315000143</text>
<text text-anchor="start" x="116.5" y="194.4" font-family="Times New Roman,serif" font-size="13.00">Generated by RailRoady 1.4.2</text>
<text text-anchor="start" x="116.5" y="208.4" font-family="Times New Roman,serif" font-size="13.00">http://railroady.prestonlee.com</text>
</g>
<!-- ApplicationController -->
<g id="node2" class="node"><title>ApplicationController</title>
<path fill="none" stroke="black" d="M264.5,107C264.5,107 377.5,107 377.5,107 383.5,107 389.5,101 389.5,95 389.5,95 389.5,25 389.5,25 389.5,19 383.5,13 377.5,13 377.5,13 264.5,13 264.5,13 258.5,13 252.5,19 252.5,25 252.5,25 252.5,95 252.5,95 252.5,101 258.5,107 264.5,107"/>
<text text-anchor="middle" x="321" y="28.2" font-family="Times New Roman,serif" font-size="14.00">ApplicationController</text>
<polyline fill="none" stroke="black" points="252.5,36 389.5,36 "/>
<polyline fill="none" stroke="black" points="252.5,60 389.5,60 "/>
<polyline fill="none" stroke="black" points="252.5,84 389.5,84 "/>
<text text-anchor="start" x="260.5" y="99.2" font-family="Times New Roman,serif" font-size="14.00">_layout</text>
</g>
<!-- GatewaysController -->
<g id="node3" class="node"><title>GatewaysController</title>
<path fill="none" stroke="black" d="M-186,-199C-186,-199 -82,-199 -82,-199 -76,-199 -70,-205 -70,-211 -70,-211 -70,-355 -70,-355 -70,-361 -76,-367 -82,-367 -82,-367 -186,-367 -186,-367 -192,-367 -198,-361 -198,-355 -198,-355 -198,-211 -198,-211 -198,-205 -192,-199 -186,-199"/>
<text text-anchor="middle" x="-134" y="-351.8" font-family="Times New Roman,serif" font-size="14.00">GatewaysController</text>
<polyline fill="none" stroke="black" points="-198,-344 -70,-344 "/>
<text text-anchor="start" x="-190" y="-328.8" font-family="Times New Roman,serif" font-size="14.00">create</text>
<text text-anchor="start" x="-190" y="-313.8" font-family="Times New Roman,serif" font-size="14.00">index</text>
<text text-anchor="start" x="-190" y="-298.8" font-family="Times New Roman,serif" font-size="14.00">mqtt_publish</text>
<text text-anchor="start" x="-190" y="-283.8" font-family="Times New Roman,serif" font-size="14.00">new</text>
<text text-anchor="start" x="-190" y="-268.8" font-family="Times New Roman,serif" font-size="14.00">show</text>
<polyline fill="none" stroke="black" points="-198,-261 -70,-261 "/>
<polyline fill="none" stroke="black" points="-198,-237 -70,-237 "/>
<text text-anchor="start" x="-190" y="-221.8" font-family="Times New Roman,serif" font-size="14.00">_layout</text>
<text text-anchor="start" x="-190" y="-206.8" font-family="Times New Roman,serif" font-size="14.00">set_gateway</text>
</g>
<!-- LaboratoriesController -->
<g id="node4" class="node"><title>LaboratoriesController</title>
<path fill="none" stroke="black" d="M-59.5,161C-59.5,161 59.5,161 59.5,161 65.5,161 71.5,155 71.5,149 71.5,149 71.5,-145 71.5,-145 71.5,-151 65.5,-157 59.5,-157 59.5,-157 -59.5,-157 -59.5,-157 -65.5,-157 -71.5,-151 -71.5,-145 -71.5,-145 -71.5,149 -71.5,149 -71.5,155 -65.5,161 -59.5,161"/>
<text text-anchor="middle" x="0" y="-141.8" font-family="Times New Roman,serif" font-size="14.00">LaboratoriesController</text>
<polyline fill="none" stroke="black" points="-71.5,-134 71.5,-134 "/>
<text text-anchor="start" x="-63.5" y="-118.8" font-family="Times New Roman,serif" font-size="14.00">create</text>
<text text-anchor="start" x="-63.5" y="-103.8" font-family="Times New Roman,serif" font-size="14.00">destroy</text>
<text text-anchor="start" x="-63.5" y="-88.8" font-family="Times New Roman,serif" font-size="14.00">edit</text>
<text text-anchor="start" x="-63.5" y="-73.8" font-family="Times New Roman,serif" font-size="14.00">experiments</text>
<text text-anchor="start" x="-63.5" y="-58.8" font-family="Times New Roman,serif" font-size="14.00">get_chart_data</text>
<text text-anchor="start" x="-63.5" y="-43.8" font-family="Times New Roman,serif" font-size="14.00">get_log_data</text>
<text text-anchor="start" x="-63.5" y="-28.8" font-family="Times New Roman,serif" font-size="14.00">index</text>
<text text-anchor="start" x="-63.5" y="-13.8" font-family="Times New Roman,serif" font-size="14.00">l_session</text>
<text text-anchor="start" x="-63.5" y="1.2" font-family="Times New Roman,serif" font-size="14.00">new</text>
<text text-anchor="start" x="-63.5" y="16.2" font-family="Times New Roman,serif" font-size="14.00">published</text>
<text text-anchor="start" x="-63.5" y="31.2" font-family="Times New Roman,serif" font-size="14.00">show</text>
<text text-anchor="start" x="-63.5" y="46.2" font-family="Times New Roman,serif" font-size="14.00">ui_designer</text>
<text text-anchor="start" x="-63.5" y="61.2" font-family="Times New Roman,serif" font-size="14.00">update</text>
<polyline fill="none" stroke="black" points="-71.5,69 71.5,69 "/>
<polyline fill="none" stroke="black" points="-71.5,93 71.5,93 "/>
<text text-anchor="start" x="-63.5" y="108.2" font-family="Times New Roman,serif" font-size="14.00">_layout</text>
<text text-anchor="start" x="-63.5" y="123.2" font-family="Times New Roman,serif" font-size="14.00">defined_widgets</text>
<text text-anchor="start" x="-63.5" y="138.2" font-family="Times New Roman,serif" font-size="14.00">laboratory_params</text>
<text text-anchor="start" x="-63.5" y="153.2" font-family="Times New Roman,serif" font-size="14.00">set_laboratory</text>
</g>
<!-- RigsController -->
<g id="node5" class="node"><title>RigsController</title>
<path fill="none" stroke="black" d="M120,107C120,107 204,107 204,107 210,107 216,101 216,95 216,95 216,-199 216,-199 216,-205 210,-211 204,-211 204,-211 120,-211 120,-211 114,-211 108,-205 108,-199 108,-199 108,95 108,95 108,101 114,107 120,107"/>
<text text-anchor="middle" x="162" y="-195.8" font-family="Times New Roman,serif" font-size="14.00">RigsController</text>
<polyline fill="none" stroke="black" points="108,-188 216,-188 "/>
<text text-anchor="start" x="116" y="-172.8" font-family="Times New Roman,serif" font-size="14.00">create</text>
<text text-anchor="start" x="116" y="-157.8" font-family="Times New Roman,serif" font-size="14.00">destroy</text>
<text text-anchor="start" x="116" y="-142.8" font-family="Times New Roman,serif" font-size="14.00">edit</text>
<text text-anchor="start" x="116" y="-127.8" font-family="Times New Roman,serif" font-size="14.00">experiments</text>
<text text-anchor="start" x="116" y="-112.8" font-family="Times New Roman,serif" font-size="14.00">get_chart_data</text>
<text text-anchor="start" x="116" y="-97.8" font-family="Times New Roman,serif" font-size="14.00">get_log_data</text>
<text text-anchor="start" x="116" y="-82.8" font-family="Times New Roman,serif" font-size="14.00">index</text>
<text text-anchor="start" x="116" y="-67.8" font-family="Times New Roman,serif" font-size="14.00">mqtt_publish</text>
<text text-anchor="start" x="116" y="-52.8" font-family="Times New Roman,serif" font-size="14.00">new</text>
<text text-anchor="start" x="116" y="-37.8" font-family="Times New Roman,serif" font-size="14.00">r_session</text>
<text text-anchor="start" x="116" y="-22.8" font-family="Times New Roman,serif" font-size="14.00">show</text>
<text text-anchor="start" x="116" y="-7.8" font-family="Times New Roman,serif" font-size="14.00">ui_designer</text>
<text text-anchor="start" x="116" y="7.2" font-family="Times New Roman,serif" font-size="14.00">update</text>
<polyline fill="none" stroke="black" points="108,15 216,15 "/>
<polyline fill="none" stroke="black" points="108,39 216,39 "/>
<text text-anchor="start" x="116" y="54.2" font-family="Times New Roman,serif" font-size="14.00">_layout</text>
<text text-anchor="start" x="116" y="69.2" font-family="Times New Roman,serif" font-size="14.00">defined_widgets</text>
<text text-anchor="start" x="116" y="84.2" font-family="Times New Roman,serif" font-size="14.00">rig_params</text>
<text text-anchor="start" x="116" y="99.2" font-family="Times New Roman,serif" font-size="14.00">set_rig</text>
</g>
<!-- ThingsController -->
<g id="node6" class="node"><title>ThingsController</title>
<path fill="none" stroke="black" d="M-23.5,-198.5C-23.5,-198.5 63.5,-198.5 63.5,-198.5 69.5,-198.5 75.5,-204.5 75.5,-210.5 75.5,-210.5 75.5,-399.5 75.5,-399.5 75.5,-405.5 69.5,-411.5 63.5,-411.5 63.5,-411.5 -23.5,-411.5 -23.5,-411.5 -29.5,-411.5 -35.5,-405.5 -35.5,-399.5 -35.5,-399.5 -35.5,-210.5 -35.5,-210.5 -35.5,-204.5 -29.5,-198.5 -23.5,-198.5"/>
<text text-anchor="middle" x="20" y="-396.3" font-family="Times New Roman,serif" font-size="14.00">ThingsController</text>
<polyline fill="none" stroke="black" points="-35.5,-388.5 75.5,-388.5 "/>
<text text-anchor="start" x="-27.5" y="-373.3" font-family="Times New Roman,serif" font-size="14.00">create</text>
<text text-anchor="start" x="-27.5" y="-358.3" font-family="Times New Roman,serif" font-size="14.00">destroy</text>
<text text-anchor="start" x="-27.5" y="-343.3" font-family="Times New Roman,serif" font-size="14.00">edit</text>
<text text-anchor="start" x="-27.5" y="-328.3" font-family="Times New Roman,serif" font-size="14.00">index</text>
<text text-anchor="start" x="-27.5" y="-313.3" font-family="Times New Roman,serif" font-size="14.00">new</text>
<text text-anchor="start" x="-27.5" y="-298.3" font-family="Times New Roman,serif" font-size="14.00">show</text>
<text text-anchor="start" x="-27.5" y="-283.3" font-family="Times New Roman,serif" font-size="14.00">update</text>
<polyline fill="none" stroke="black" points="-35.5,-275.5 75.5,-275.5 "/>
<polyline fill="none" stroke="black" points="-35.5,-251.5 75.5,-251.5 "/>
<text text-anchor="start" x="-27.5" y="-236.3" font-family="Times New Roman,serif" font-size="14.00">_layout</text>
<text text-anchor="start" x="-27.5" y="-221.3" font-family="Times New Roman,serif" font-size="14.00">set_thing</text>
<text text-anchor="start" x="-27.5" y="-206.3" font-family="Times New Roman,serif" font-size="14.00">thing_params</text>
</g>
<!-- UsersController -->
<g id="node7" class="node"><title>UsersController</title>
<path fill="none" stroke="black" d="M-203.5,-0.5C-203.5,-0.5 -122.5,-0.5 -122.5,-0.5 -116.5,-0.5 -110.5,-6.5 -110.5,-12.5 -110.5,-12.5 -110.5,-141.5 -110.5,-141.5 -110.5,-147.5 -116.5,-153.5 -122.5,-153.5 -122.5,-153.5 -203.5,-153.5 -203.5,-153.5 -209.5,-153.5 -215.5,-147.5 -215.5,-141.5 -215.5,-141.5 -215.5,-12.5 -215.5,-12.5 -215.5,-6.5 -209.5,-0.5 -203.5,-0.5"/>
<text text-anchor="middle" x="-163" y="-138.3" font-family="Times New Roman,serif" font-size="14.00">UsersController</text>
<polyline fill="none" stroke="black" points="-215.5,-130.5 -110.5,-130.5 "/>
<text text-anchor="start" x="-207.5" y="-115.3" font-family="Times New Roman,serif" font-size="14.00">destroy</text>
<text text-anchor="start" x="-207.5" y="-100.3" font-family="Times New Roman,serif" font-size="14.00">index</text>
<text text-anchor="start" x="-207.5" y="-85.3" font-family="Times New Roman,serif" font-size="14.00">show</text>
<text text-anchor="start" x="-207.5" y="-70.3" font-family="Times New Roman,serif" font-size="14.00">update</text>
<polyline fill="none" stroke="black" points="-215.5,-62.5 -110.5,-62.5 "/>
<polyline fill="none" stroke="black" points="-215.5,-38.5 -110.5,-38.5 "/>
<text text-anchor="start" x="-207.5" y="-23.3" font-family="Times New Roman,serif" font-size="14.00">_layout</text>
<text text-anchor="start" x="-207.5" y="-8.3" font-family="Times New Roman,serif" font-size="14.00">secure_params</text>
</g>
<!-- VisitorsController -->
<g id="node8" class="node"><title>VisitorsController</title>
<path fill="none" stroke="black" d="M-204,125C-204,125 -112,125 -112,125 -106,125 -100,119 -100,113 -100,113 -100,43 -100,43 -100,37 -106,31 -112,31 -112,31 -204,31 -204,31 -210,31 -216,37 -216,43 -216,43 -216,113 -216,113 -216,119 -210,125 -204,125"/>
<text text-anchor="middle" x="-158" y="46.2" font-family="Times New Roman,serif" font-size="14.00">VisitorsController</text>
<polyline fill="none" stroke="black" points="-216,54 -100,54 "/>
<polyline fill="none" stroke="black" points="-216,78 -100,78 "/>
<polyline fill="none" stroke="black" points="-216,102 -100,102 "/>
<text text-anchor="start" x="-208" y="117.2" font-family="Times New Roman,serif" font-size="14.00">_layout</text>
</g>
</g>
</svg>
