<?xml version="1.0" encoding="UTF-8" standalone="no"?>
<!DOCTYPE svg PUBLIC "-//W3C//DTD SVG 1.1//EN"
 "http://www.w3.org/Graphics/SVG/1.1/DTD/svg11.dtd">
<!-- Generated by graphviz version 2.38.0 (20140413.2041)
 -->
<!-- Title: controllers_diagram Pages: 1 -->
<svg width="393pt" height="503pt"
 viewBox="0.00 0.00 393.00 503.00" xmlns="http://www.w3.org/2000/svg" xmlns:xlink="http://www.w3.org/1999/xlink">
<g id="graph0" class="graph" transform="scale(1 1) rotate(0) translate(99.5 291.5)">
<title>controllers_diagram</title>
<polygon fill="none" stroke="none" points="-99.5,211.5 -99.5,-291.5 293.5,-291.5 293.5,211.5 -99.5,211.5"/>
<!-- _diagram_info -->
<g id="node1" class="node"><title>_diagram_info</title>
<text text-anchor="start" x="88.5" y="16.4" font-family="Times New Roman,serif" font-size="13.00">Controllers diagram</text>
<text text-anchor="start" x="88.5" y="30.4" font-family="Times New Roman,serif" font-size="13.00">Date: Feb 19 2016 &#45; 14:55</text>
<text text-anchor="start" x="88.5" y="44.4" font-family="Times New Roman,serif" font-size="13.00">Migration version: 20160219023833</text>
<text text-anchor="start" x="88.5" y="58.4" font-family="Times New Roman,serif" font-size="13.00">Generated by RailRoady 1.4.2</text>
<text text-anchor="start" x="88.5" y="72.4" font-family="Times New Roman,serif" font-size="13.00">http://railroady.prestonlee.com</text>
</g>
<!-- ApplicationController -->
<g id="node2" class="node"><title>ApplicationController</title>
<path fill="none" stroke="black" d="M-83.5,-193C-83.5,-193 29.5,-193 29.5,-193 35.5,-193 41.5,-199 41.5,-205 41.5,-205 41.5,-275 41.5,-275 41.5,-281 35.5,-287 29.5,-287 29.5,-287 -83.5,-287 -83.5,-287 -89.5,-287 -95.5,-281 -95.5,-275 -95.5,-275 -95.5,-205 -95.5,-205 -95.5,-199 -89.5,-193 -83.5,-193"/>
<text text-anchor="middle" x="-27" y="-271.8" font-family="Times New Roman,serif" font-size="14.00">ApplicationController</text>
<polyline fill="none" stroke="black" points="-95.5,-264 41.5,-264 "/>
<polyline fill="none" stroke="black" points="-95.5,-240 41.5,-240 "/>
<polyline fill="none" stroke="black" points="-95.5,-216 41.5,-216 "/>
<text text-anchor="start" x="-87.5" y="-200.8" font-family="Times New Roman,serif" font-size="14.00">_layout</text>
</g>
<!-- RigsController -->
<g id="node3" class="node"><title>RigsController</title>
<path fill="none" stroke="black" d="M-52,159C-52,159 32,159 32,159 38,159 44,153 44,147 44,147 44,-147 44,-147 44,-153 38,-159 32,-159 32,-159 -52,-159 -52,-159 -58,-159 -64,-153 -64,-147 -64,-147 -64,147 -64,147 -64,153 -58,159 -52,159"/>
<text text-anchor="middle" x="-10" y="-143.8" font-family="Times New Roman,serif" font-size="14.00">RigsController</text>
<polyline fill="none" stroke="black" points="-64,-136 44,-136 "/>
<text text-anchor="start" x="-56" y="-120.8" font-family="Times New Roman,serif" font-size="14.00">create</text>
<text text-anchor="start" x="-56" y="-105.8" font-family="Times New Roman,serif" font-size="14.00">destroy</text>
<text text-anchor="start" x="-56" y="-90.8" font-family="Times New Roman,serif" font-size="14.00">edit</text>
<text text-anchor="start" x="-56" y="-75.8" font-family="Times New Roman,serif" font-size="14.00">experiments</text>
<text text-anchor="start" x="-56" y="-60.8" font-family="Times New Roman,serif" font-size="14.00">get_chart_data</text>
<text text-anchor="start" x="-56" y="-45.8" font-family="Times New Roman,serif" font-size="14.00">get_log_data</text>
<text text-anchor="start" x="-56" y="-30.8" font-family="Times New Roman,serif" font-size="14.00">index</text>
<text text-anchor="start" x="-56" y="-15.8" font-family="Times New Roman,serif" font-size="14.00">mqtt_publish</text>
<text text-anchor="start" x="-56" y="-0.8" font-family="Times New Roman,serif" font-size="14.00">new</text>
<text text-anchor="start" x="-56" y="14.2" font-family="Times New Roman,serif" font-size="14.00">r_session</text>
<text text-anchor="start" x="-56" y="29.2" font-family="Times New Roman,serif" font-size="14.00">show</text>
<text text-anchor="start" x="-56" y="44.2" font-family="Times New Roman,serif" font-size="14.00">ui_designer</text>
<text text-anchor="start" x="-56" y="59.2" font-family="Times New Roman,serif" font-size="14.00">update</text>
<polyline fill="none" stroke="black" points="-64,67 44,67 "/>
<polyline fill="none" stroke="black" points="-64,91 44,91 "/>
<text text-anchor="start" x="-56" y="106.2" font-family="Times New Roman,serif" font-size="14.00">_layout</text>
<text text-anchor="start" x="-56" y="121.2" font-family="Times New Roman,serif" font-size="14.00">defined_widgets</text>
<text text-anchor="start" x="-56" y="136.2" font-family="Times New Roman,serif" font-size="14.00">rig_params</text>
<text text-anchor="start" x="-56" y="151.2" font-family="Times New Roman,serif" font-size="14.00">set_rig</text>
</g>
<!-- UsersController -->
<g id="node4" class="node"><title>UsersController</title>
<path fill="none" stroke="black" d="M92.5,-32.5C92.5,-32.5 173.5,-32.5 173.5,-32.5 179.5,-32.5 185.5,-38.5 185.5,-44.5 185.5,-44.5 185.5,-173.5 185.5,-173.5 185.5,-179.5 179.5,-185.5 173.5,-185.5 173.5,-185.5 92.5,-185.5 92.5,-185.5 86.5,-185.5 80.5,-179.5 80.5,-173.5 80.5,-173.5 80.5,-44.5 80.5,-44.5 80.5,-38.5 86.5,-32.5 92.5,-32.5"/>
<text text-anchor="middle" x="133" y="-170.3" font-family="Times New Roman,serif" font-size="14.00">UsersController</text>
<polyline fill="none" stroke="black" points="80.5,-162.5 185.5,-162.5 "/>
<text text-anchor="start" x="88.5" y="-147.3" font-family="Times New Roman,serif" font-size="14.00">destroy</text>
<text text-anchor="start" x="88.5" y="-132.3" font-family="Times New Roman,serif" font-size="14.00">index</text>
<text text-anchor="start" x="88.5" y="-117.3" font-family="Times New Roman,serif" font-size="14.00">show</text>
<text text-anchor="start" x="88.5" y="-102.3" font-family="Times New Roman,serif" font-size="14.00">update</text>
<polyline fill="none" stroke="black" points="80.5,-94.5 185.5,-94.5 "/>
<polyline fill="none" stroke="black" points="80.5,-70.5 185.5,-70.5 "/>
<text text-anchor="start" x="88.5" y="-55.3" font-family="Times New Roman,serif" font-size="14.00">_layout</text>
<text text-anchor="start" x="88.5" y="-40.3" font-family="Times New Roman,serif" font-size="14.00">secure_params</text>
</g>
<!-- VisitorsController -->
<g id="node5" class="node"><title>VisitorsController</title>
<path fill="none" stroke="black" d="M92,207C92,207 184,207 184,207 190,207 196,201 196,195 196,195 196,125 196,125 196,119 190,113 184,113 184,113 92,113 92,113 86,113 80,119 80,125 80,125 80,195 80,195 80,201 86,207 92,207"/>
<text text-anchor="middle" x="138" y="128.2" font-family="Times New Roman,serif" font-size="14.00">VisitorsController</text>
<polyline fill="none" stroke="black" points="80,136 196,136 "/>
<polyline fill="none" stroke="black" points="80,160 196,160 "/>
<polyline fill="none" stroke="black" points="80,184 196,184 "/>
<text text-anchor="start" x="88" y="199.2" font-family="Times New Roman,serif" font-size="14.00">_layout</text>
</g>
</g>
</svg>
