<?xml version="1.0" encoding="UTF-8" standalone="no"?>
<!DOCTYPE svg PUBLIC "-//W3C//DTD SVG 1.1//EN"
 "http://www.w3.org/Graphics/SVG/1.1/DTD/svg11.dtd">
<!-- Generated by graphviz version 2.38.0 (20140413.2041)
 -->
<!-- Title: models_diagram Pages: 1 -->
<svg width="656pt" height="1069pt"
 viewBox="0.00 0.00 655.50 1069.00" xmlns="http://www.w3.org/2000/svg" xmlns:xlink="http://www.w3.org/1999/xlink">
<g id="graph0" class="graph" transform="scale(1 1) rotate(0) translate(4 1065)">
<title>models_diagram</title>
<polygon fill="none" stroke="none" points="-4,4 -4,-1065 651.5,-1065 651.5,4 -4,4"/>
<!-- _diagram_info -->
<g id="node1" class="node"><title>_diagram_info</title>
<text text-anchor="start" x="110" y="-867.1" font-family="Times New Roman,serif" font-size="13.00">Models diagram</text>
<text text-anchor="start" x="110" y="-853.1" font-family="Times New Roman,serif" font-size="13.00">Date: Mar 22 2016 &#45; 12:40</text>
<text text-anchor="start" x="110" y="-839.1" font-family="Times New Roman,serif" font-size="13.00">Migration version: 20160315000143</text>
<text text-anchor="start" x="110" y="-825.1" font-family="Times New Roman,serif" font-size="13.00">Generated by RailRoady 1.4.2</text>
<text text-anchor="start" x="110" y="-811.1" font-family="Times New Roman,serif" font-size="13.00">http://railroady.prestonlee.com</text>
</g>
<!-- Gateway -->
<g id="node2" class="node"><title>Gateway</title>
<path fill="none" stroke="black" d="M12,-399C12,-399 233,-399 233,-399 239,-399 245,-405 245,-411 245,-411 245,-568 245,-568 245,-574 239,-580 233,-580 233,-580 12,-580 12,-580 6,-580 0,-574 0,-568 0,-568 0,-411 0,-411 0,-405 6,-399 12,-399"/>
<text text-anchor="middle" x="122.5" y="-564.8" font-family="Times New Roman,serif" font-size="14.00">Gateway</text>
<polyline fill="none" stroke="black" points="0,-557 245,-557 "/>
<text text-anchor="start" x="8" y="-541.8" font-family="Times New Roman,serif" font-size="14.00">id :integer</text>
<text text-anchor="start" x="8" y="-526.8" font-family="Times New Roman,serif" font-size="14.00">synched :boolean</text>
<text text-anchor="start" x="8" y="-511.8" font-family="Times New Roman,serif" font-size="14.00">password :character varying(255)</text>
<text text-anchor="start" x="8" y="-496.8" font-family="Times New Roman,serif" font-size="14.00">timestamp :character varying(255)</text>
<text text-anchor="start" x="8" y="-481.8" font-family="Times New Roman,serif" font-size="14.00">created_at :timestamp without time zone</text>
<text text-anchor="start" x="8" y="-466.8" font-family="Times New Roman,serif" font-size="14.00">updated_at :timestamp without time zone</text>
<text text-anchor="start" x="8" y="-451.8" font-family="Times New Roman,serif" font-size="14.00">gateway_hash :character varying(255)</text>
<text text-anchor="start" x="8" y="-436.8" font-family="Times New Roman,serif" font-size="14.00">status :character varying(255)</text>
<text text-anchor="start" x="8" y="-421.8" font-family="Times New Roman,serif" font-size="14.00">gateway_name :character varying(255)</text>
<text text-anchor="start" x="8" y="-406.8" font-family="Times New Roman,serif" font-size="14.00">description :character varying(255)</text>
</g>
<!-- Thing -->
<g id="node4" class="node"><title>Thing</title>
<path fill="none" stroke="black" d="M12,-173.5C12,-173.5 233,-173.5 233,-173.5 239,-173.5 245,-179.5 245,-185.5 245,-185.5 245,-342.5 245,-342.5 245,-348.5 239,-354.5 233,-354.5 233,-354.5 12,-354.5 12,-354.5 6,-354.5 0,-348.5 0,-342.5 0,-342.5 0,-185.5 0,-185.5 0,-179.5 6,-173.5 12,-173.5"/>
<text text-anchor="middle" x="122.5" y="-339.3" font-family="Times New Roman,serif" font-size="14.00">Thing</text>
<polyline fill="none" stroke="black" points="0,-331.5 245,-331.5 "/>
<text text-anchor="start" x="8" y="-316.3" font-family="Times New Roman,serif" font-size="14.00">id :integer</text>
<text text-anchor="start" x="8" y="-301.3" font-family="Times New Roman,serif" font-size="14.00">gateway_id :integer</text>
<text text-anchor="start" x="8" y="-286.3" font-family="Times New Roman,serif" font-size="14.00">thing_type :integer</text>
<text text-anchor="start" x="8" y="-271.3" font-family="Times New Roman,serif" font-size="14.00">timestamp :character varying(255)</text>
<text text-anchor="start" x="8" y="-256.3" font-family="Times New Roman,serif" font-size="14.00">created_at :timestamp without time zone</text>
<text text-anchor="start" x="8" y="-241.3" font-family="Times New Roman,serif" font-size="14.00">updated_at :timestamp without time zone</text>
<text text-anchor="start" x="8" y="-226.3" font-family="Times New Roman,serif" font-size="14.00">laboratory_id :integer</text>
<text text-anchor="start" x="8" y="-211.3" font-family="Times New Roman,serif" font-size="14.00">status :character varying(255)</text>
<text text-anchor="start" x="8" y="-196.3" font-family="Times New Roman,serif" font-size="14.00">thing_hash :character varying(255)</text>
<text text-anchor="start" x="8" y="-181.3" font-family="Times New Roman,serif" font-size="14.00">thing_name :character varying(255)</text>
</g>
<!-- Gateway&#45;&gt;Thing -->
<g id="edge1" class="edge"><title>Gateway&#45;&gt;Thing</title>
<path fill="none" stroke="#50bd5e" d="M122.5,-390.636C122.5,-382.032 122.5,-373.317 122.5,-364.699"/>
<ellipse fill="none" stroke="#50bd5e" cx="122.5" cy="-394.882" rx="4" ry="4"/>
<polygon fill="#50bd5e" stroke="#50bd5e" points="122.5,-364.638 127,-354.638 122.5,-359.638 122.5,-354.638 122.5,-354.638 122.5,-354.638 122.5,-359.638 118,-354.638 122.5,-364.638 122.5,-364.638"/>
</g>
<!-- Laboratory -->
<g id="node3" class="node"><title>Laboratory</title>
<path fill="none" stroke="black" d="M294,-391.5C294,-391.5 515,-391.5 515,-391.5 521,-391.5 527,-397.5 527,-403.5 527,-403.5 527,-575.5 527,-575.5 527,-581.5 521,-587.5 515,-587.5 515,-587.5 294,-587.5 294,-587.5 288,-587.5 282,-581.5 282,-575.5 282,-575.5 282,-403.5 282,-403.5 282,-397.5 288,-391.5 294,-391.5"/>
<text text-anchor="middle" x="404.5" y="-572.3" font-family="Times New Roman,serif" font-size="14.00">Laboratory</text>
<polyline fill="none" stroke="black" points="282,-564.5 527,-564.5 "/>
<text text-anchor="start" x="290" y="-549.3" font-family="Times New Roman,serif" font-size="14.00">id :integer</text>
<text text-anchor="start" x="290" y="-534.3" font-family="Times New Roman,serif" font-size="14.00">title :character varying(255)</text>
<text text-anchor="start" x="290" y="-519.3" font-family="Times New Roman,serif" font-size="14.00">user_id :integer</text>
<text text-anchor="start" x="290" y="-504.3" font-family="Times New Roman,serif" font-size="14.00">description :text</text>
<text text-anchor="start" x="290" y="-489.3" font-family="Times New Roman,serif" font-size="14.00">pdf_file :character varying(255)</text>
<text text-anchor="start" x="290" y="-474.3" font-family="Times New Roman,serif" font-size="14.00">ui_json :text</text>
<text text-anchor="start" x="290" y="-459.3" font-family="Times New Roman,serif" font-size="14.00">published :boolean</text>
<text text-anchor="start" x="290" y="-444.3" font-family="Times New Roman,serif" font-size="14.00">timestamp :character varying(255)</text>
<text text-anchor="start" x="290" y="-429.3" font-family="Times New Roman,serif" font-size="14.00">created_at :timestamp without time zone</text>
<text text-anchor="start" x="290" y="-414.3" font-family="Times New Roman,serif" font-size="14.00">updated_at :timestamp without time zone</text>
<text text-anchor="start" x="290" y="-399.3" font-family="Times New Roman,serif" font-size="14.00">password :character(1)</text>
</g>
<!-- Laboratory&#45;&gt;Thing -->
<g id="edge2" class="edge"><title>Laboratory&#45;&gt;Thing</title>
<path fill="none" stroke="#998209" d="M274.047,-385.109C263.893,-377.061 253.665,-368.955 243.576,-360.959"/>
<polygon fill="#998209" stroke="#998209" points="274.204,-385.233 279.246,-394.971 278.122,-388.339 282.041,-391.445 282.041,-391.445 282.041,-391.445 278.122,-388.339 284.836,-387.918 274.204,-385.233 274.204,-385.233"/>
<polygon fill="#998209" stroke="#998209" points="243.355,-360.784 238.313,-351.046 239.437,-357.679 235.518,-354.573 235.518,-354.573 235.518,-354.573 239.437,-357.679 232.723,-358.1 243.355,-360.784 243.355,-360.784"/>
</g>
<!-- ThingLog -->
<g id="node5" class="node"><title>ThingLog</title>
<path fill="none" stroke="black" d="M87,-0.5C87,-0.5 308,-0.5 308,-0.5 314,-0.5 320,-6.5 320,-12.5 320,-12.5 320,-124.5 320,-124.5 320,-130.5 314,-136.5 308,-136.5 308,-136.5 87,-136.5 87,-136.5 81,-136.5 75,-130.5 75,-124.5 75,-124.5 75,-12.5 75,-12.5 75,-6.5 81,-0.5 87,-0.5"/>
<text text-anchor="middle" x="197.5" y="-121.3" font-family="Times New Roman,serif" font-size="14.00">ThingLog</text>
<polyline fill="none" stroke="black" points="75,-113.5 320,-113.5 "/>
<text text-anchor="start" x="83" y="-98.3" font-family="Times New Roman,serif" font-size="14.00">id :integer</text>
<text text-anchor="start" x="83" y="-83.3" font-family="Times New Roman,serif" font-size="14.00">thing_id :integer</text>
<text text-anchor="start" x="83" y="-68.3" font-family="Times New Roman,serif" font-size="14.00">data :json</text>
<text text-anchor="start" x="83" y="-53.3" font-family="Times New Roman,serif" font-size="14.00">topic :character varying(255)</text>
<text text-anchor="start" x="83" y="-38.3" font-family="Times New Roman,serif" font-size="14.00">timestamp :character varying(255)</text>
<text text-anchor="start" x="83" y="-23.3" font-family="Times New Roman,serif" font-size="14.00">created_at :timestamp without time zone</text>
<text text-anchor="start" x="83" y="-8.3" font-family="Times New Roman,serif" font-size="14.00">updated_at :timestamp without time zone</text>
</g>
<!-- Laboratory&#45;&gt;ThingLog -->
<g id="edge3" class="edge"><title>Laboratory&#45;&gt;ThingLog</title>
<path fill="none" stroke="#c6d719" d="M309.203,-382.611C303.375,-373.599 298.043,-364.348 293.5,-355 257.341,-280.596 283.429,-250.502 254.5,-173 251.111,-163.919 247.03,-154.665 242.63,-145.61"/>
<polygon fill="#c6d719" stroke="#c6d719" points="309.371,-382.862 311.192,-393.675 312.151,-387.017 314.932,-391.173 314.932,-391.173 314.932,-391.173 312.151,-387.017 318.672,-388.67 309.371,-382.862 309.371,-382.862"/>
<polygon fill="#c6d719" stroke="#c6d719" points="242.614,-145.578 242.161,-134.621 240.375,-141.107 238.137,-136.636 238.137,-136.636 238.137,-136.636 240.375,-141.107 234.113,-138.65 242.614,-145.578 242.614,-145.578"/>
</g>
<!-- ThingWidget -->
<g id="node6" class="node"><title>ThingWidget</title>
<path fill="none" stroke="black" d="M314,-196C314,-196 535,-196 535,-196 541,-196 547,-202 547,-208 547,-208 547,-320 547,-320 547,-326 541,-332 535,-332 535,-332 314,-332 314,-332 308,-332 302,-326 302,-320 302,-320 302,-208 302,-208 302,-202 308,-196 314,-196"/>
<text text-anchor="middle" x="424.5" y="-316.8" font-family="Times New Roman,serif" font-size="14.00">ThingWidget</text>
<polyline fill="none" stroke="black" points="302,-309 547,-309 "/>
<text text-anchor="start" x="310" y="-293.8" font-family="Times New Roman,serif" font-size="14.00">id :integer</text>
<text text-anchor="start" x="310" y="-278.8" font-family="Times New Roman,serif" font-size="14.00">gateway_id :integer</text>
<text text-anchor="start" x="310" y="-263.8" font-family="Times New Roman,serif" font-size="14.00">settings :text</text>
<text text-anchor="start" x="310" y="-248.8" font-family="Times New Roman,serif" font-size="14.00">enabled :boolean</text>
<text text-anchor="start" x="310" y="-233.8" font-family="Times New Roman,serif" font-size="14.00">timestamp :character varying(255)</text>
<text text-anchor="start" x="310" y="-218.8" font-family="Times New Roman,serif" font-size="14.00">created_at :timestamp without time zone</text>
<text text-anchor="start" x="310" y="-203.8" font-family="Times New Roman,serif" font-size="14.00">updated_at :timestamp without time zone</text>
</g>
<!-- Laboratory&#45;&gt;ThingWidget -->
<g id="edge4" class="edge"><title>Laboratory&#45;&gt;ThingWidget</title>
<path fill="none" stroke="#b723ad" d="M407.162,-383.438C408.364,-369.513 409.717,-355.449 411.146,-342.115"/>
<ellipse fill="none" stroke="#b723ad" cx="406.823" cy="-387.459" rx="4" ry="4"/>
<polygon fill="#b723ad" stroke="#b723ad" points="411.157,-342.015 416.725,-332.568 411.705,-337.045 412.252,-332.075 412.252,-332.075 412.252,-332.075 411.705,-337.045 407.779,-331.582 411.157,-342.015 411.157,-342.015"/>
</g>
<!-- Thing&#45;&gt;ThingLog -->
<g id="edge5" class="edge"><title>Thing&#45;&gt;ThingLog</title>
<path fill="none" stroke="#103580" d="M160.179,-165.788C162.75,-159.156 165.319,-152.527 167.839,-146.025"/>
<ellipse fill="none" stroke="#103580" cx="158.701" cy="-169.601" rx="4.00001" ry="4.00001"/>
<polygon fill="#103580" stroke="#103580" points="167.876,-145.93 175.686,-138.232 169.683,-141.268 171.49,-136.606 171.49,-136.606 171.49,-136.606 169.683,-141.268 167.294,-134.979 167.876,-145.93 167.876,-145.93"/>
</g>
<!-- ThingWidget&#45;&gt;Laboratory -->
<g id="edge6" class="edge"><title>ThingWidget&#45;&gt;Laboratory</title>
<path fill="none" stroke="#defb63" d="M424.032,-342.405C423.132,-354.898 422.053,-368.026 420.858,-381.075"/>
<polygon fill="#defb63" stroke="#defb63" points="424.056,-342.051 429.233,-332.385 424.4,-337.063 424.743,-332.075 424.743,-332.075 424.743,-332.075 424.4,-337.063 420.254,-331.766 424.056,-342.051 424.056,-342.051"/>
<polygon fill="#defb63" stroke="#defb63" points="420.82,-381.489 415.403,-391.023 420.351,-386.467 419.883,-391.445 419.883,-391.445 419.883,-391.445 420.351,-386.467 424.363,-391.866 420.82,-381.489 420.82,-381.489"/>
</g>
<!-- User -->
<g id="node7" class="node"><title>User</title>
<path fill="none" stroke="black" d="M341.5,-624.5C341.5,-624.5 635.5,-624.5 635.5,-624.5 641.5,-624.5 647.5,-630.5 647.5,-636.5 647.5,-636.5 647.5,-1048.5 647.5,-1048.5 647.5,-1054.5 641.5,-1060.5 635.5,-1060.5 635.5,-1060.5 341.5,-1060.5 341.5,-1060.5 335.5,-1060.5 329.5,-1054.5 329.5,-1048.5 329.5,-1048.5 329.5,-636.5 329.5,-636.5 329.5,-630.5 335.5,-624.5 341.5,-624.5"/>
<text text-anchor="middle" x="488.5" y="-1045.3" font-family="Times New Roman,serif" font-size="14.00">User</text>
<polyline fill="none" stroke="black" points="329.5,-1037.5 647.5,-1037.5 "/>
<text text-anchor="start" x="337.5" y="-1022.3" font-family="Times New Roman,serif" font-size="14.00">id :integer</text>
<text text-anchor="start" x="337.5" y="-1007.3" font-family="Times New Roman,serif" font-size="14.00">email :character varying(255)</text>
<text text-anchor="start" x="337.5" y="-992.3" font-family="Times New Roman,serif" font-size="14.00">encrypted_password :character varying(255)</text>
<text text-anchor="start" x="337.5" y="-977.3" font-family="Times New Roman,serif" font-size="14.00">reset_password_token :character varying(255)</text>
<text text-anchor="start" x="337.5" y="-962.3" font-family="Times New Roman,serif" font-size="14.00">reset_password_sent_at :timestamp without time zone</text>
<text text-anchor="start" x="337.5" y="-947.3" font-family="Times New Roman,serif" font-size="14.00">remember_created_at :timestamp without time zone</text>
<text text-anchor="start" x="337.5" y="-932.3" font-family="Times New Roman,serif" font-size="14.00">sign_in_count :integer</text>
<text text-anchor="start" x="337.5" y="-917.3" font-family="Times New Roman,serif" font-size="14.00">current_sign_in_at :timestamp without time zone</text>
<text text-anchor="start" x="337.5" y="-902.3" font-family="Times New Roman,serif" font-size="14.00">last_sign_in_at :timestamp without time zone</text>
<text text-anchor="start" x="337.5" y="-887.3" font-family="Times New Roman,serif" font-size="14.00">current_sign_in_ip :inet</text>
<text text-anchor="start" x="337.5" y="-872.3" font-family="Times New Roman,serif" font-size="14.00">last_sign_in_ip :inet</text>
<text text-anchor="start" x="337.5" y="-857.3" font-family="Times New Roman,serif" font-size="14.00">created_at :timestamp without time zone</text>
<text text-anchor="start" x="337.5" y="-842.3" font-family="Times New Roman,serif" font-size="14.00">updated_at :timestamp without time zone</text>
<text text-anchor="start" x="337.5" y="-827.3" font-family="Times New Roman,serif" font-size="14.00">name :character varying(255)</text>
<text text-anchor="start" x="337.5" y="-812.3" font-family="Times New Roman,serif" font-size="14.00">confirmation_token :character varying(255)</text>
<text text-anchor="start" x="337.5" y="-797.3" font-family="Times New Roman,serif" font-size="14.00">confirmed_at :timestamp without time zone</text>
<text text-anchor="start" x="337.5" y="-782.3" font-family="Times New Roman,serif" font-size="14.00">confirmation_sent_at :timestamp without time zone</text>
<text text-anchor="start" x="337.5" y="-767.3" font-family="Times New Roman,serif" font-size="14.00">unconfirmed_email :character varying(255)</text>
<text text-anchor="start" x="337.5" y="-752.3" font-family="Times New Roman,serif" font-size="14.00">role :integer</text>
<text text-anchor="start" x="337.5" y="-737.3" font-family="Times New Roman,serif" font-size="14.00">invitation_token :character varying(255)</text>
<text text-anchor="start" x="337.5" y="-722.3" font-family="Times New Roman,serif" font-size="14.00">invitation_created_at :timestamp without time zone</text>
<text text-anchor="start" x="337.5" y="-707.3" font-family="Times New Roman,serif" font-size="14.00">invitation_sent_at :timestamp without time zone</text>
<text text-anchor="start" x="337.5" y="-692.3" font-family="Times New Roman,serif" font-size="14.00">invitation_accepted_at :timestamp without time zone</text>
<text text-anchor="start" x="337.5" y="-677.3" font-family="Times New Roman,serif" font-size="14.00">invitation_limit :integer</text>
<text text-anchor="start" x="337.5" y="-662.3" font-family="Times New Roman,serif" font-size="14.00">invited_by_id :integer</text>
<text text-anchor="start" x="337.5" y="-647.3" font-family="Times New Roman,serif" font-size="14.00">invited_by_type :character varying(255)</text>
<text text-anchor="start" x="337.5" y="-632.3" font-family="Times New Roman,serif" font-size="14.00">invitations_count :integer</text>
</g>
<!-- User&#45;&gt;Laboratory -->
<g id="edge8" class="edge"><title>User&#45;&gt;Laboratory</title>
<path fill="none" stroke="#161ab8" d="M434.652,-616.494C433.14,-610.176 431.651,-603.95 430.192,-597.855"/>
<ellipse fill="none" stroke="#161ab8" cx="435.625" cy="-620.56" rx="4.00001" ry="4.00001"/>
<polygon fill="#161ab8" stroke="#161ab8" points="430.095,-597.451 432.144,-586.679 428.932,-592.589 427.768,-587.726 427.768,-587.726 427.768,-587.726 428.932,-592.589 423.391,-588.773 430.095,-597.451 430.095,-597.451"/>
</g>
<!-- Rig -->
<g id="node8" class="node"><title>Rig</title>
<ellipse fill="none" stroke="black" cx="572.5" cy="-489.5" rx="27" ry="18"/>
<text text-anchor="middle" x="572.5" y="-485.8" font-family="Times New Roman,serif" font-size="14.00">Rig</text>
</g>
<!-- User&#45;&gt;Rig -->
<g id="edge7" class="edge"><title>User&#45;&gt;Rig</title>
<path fill="none" stroke="#79c805" d="M542.363,-616.429C551.899,-576.585 560.545,-540.454 566.106,-517.216"/>
<ellipse fill="none" stroke="#79c805" cx="541.375" cy="-620.56" rx="4.00001" ry="4.00001"/>
<polygon fill="#79c805" stroke="#79c805" points="566.109,-517.205 572.813,-508.527 567.273,-512.343 568.436,-507.48 568.436,-507.48 568.436,-507.48 567.273,-512.343 564.06,-506.433 566.109,-517.205 566.109,-517.205"/>
</g>
</g>
</svg>
