<?xml version="1.0" encoding="UTF-8" standalone="no"?>
<!DOCTYPE svg PUBLIC "-//W3C//DTD SVG 1.1//EN"
 "http://www.w3.org/Graphics/SVG/1.1/DTD/svg11.dtd">
<!-- Generated by graphviz version 2.38.0 (20140413.2041)
 -->
<!-- Title: models_diagram Pages: 1 -->
<svg width="517pt" height="302pt"
 viewBox="0.00 0.00 517.04 302.00" xmlns="http://www.w3.org/2000/svg" xmlns:xlink="http://www.w3.org/1999/xlink">
<g id="graph0" class="graph" transform="scale(1 1) rotate(0) translate(4 298)">
<title>models_diagram</title>
<polygon fill="none" stroke="none" points="-4,4 -4,-298 513.045,-298 513.045,4 -4,4"/>
<!-- _diagram_info -->
<g id="node1" class="node"><title>_diagram_info</title>
<text text-anchor="start" x="8" y="-279.6" font-family="Times New Roman,serif" font-size="13.00">Models diagram</text>
<text text-anchor="start" x="8" y="-265.6" font-family="Times New Roman,serif" font-size="13.00">Date: Feb 19 2016 &#45; 14:54</text>
<text text-anchor="start" x="8" y="-251.6" font-family="Times New Roman,serif" font-size="13.00">Migration version: 20160219023833</text>
<text text-anchor="start" x="8" y="-237.6" font-family="Times New Roman,serif" font-size="13.00">Generated by RailRoady 1.4.2</text>
<text text-anchor="start" x="8" y="-223.6" font-family="Times New Roman,serif" font-size="13.00">http://railroady.prestonlee.com</text>
</g>
<!-- Gateway -->
<g id="node2" class="node"><title>Gateway</title>
<ellipse fill="none" stroke="black" cx="75.5" cy="-162" rx="42.4939" ry="18"/>
<text text-anchor="middle" x="75.5" y="-158.3" font-family="Times New Roman,serif" font-size="14.00">Gateway</text>
</g>
<!-- Thing -->
<g id="node8" class="node"><title>Thing</title>
<ellipse fill="none" stroke="black" cx="76.5" cy="-90" rx="31.6951" ry="18"/>
<text text-anchor="middle" x="76.5" y="-86.3" font-family="Times New Roman,serif" font-size="14.00">Thing</text>
</g>
<!-- Gateway&#45;&gt;Thing -->
<g id="edge1" class="edge"><title>Gateway&#45;&gt;Thing</title>
<path fill="none" stroke="#410330" d="M75.8623,-135.64C75.942,-130.063 76.0267,-124.132 76.1075,-118.476"/>
<ellipse fill="none" stroke="#410330" cx="75.8044" cy="-139.697" rx="4" ry="4"/>
<polygon fill="#410330" stroke="#410330" points="76.1127,-118.103 80.7552,-108.169 76.1842,-113.104 76.2557,-108.104 76.2557,-108.104 76.2557,-108.104 76.1842,-113.104 71.7561,-108.04 76.1127,-118.103 76.1127,-118.103"/>
</g>
<!-- Laboratory -->
<g id="node3" class="node"><title>Laboratory</title>
<ellipse fill="none" stroke="black" cx="187.5" cy="-162" rx="51.1914" ry="18"/>
<text text-anchor="middle" x="187.5" y="-158.3" font-family="Times New Roman,serif" font-size="14.00">Laboratory</text>
</g>
<!-- Laboratory&#45;&gt;Thing -->
<g id="edge2" class="edge"><title>Laboratory&#45;&gt;Thing</title>
<path fill="none" stroke="#1bcf6b" d="M156.896,-141.7C140.926,-131.629 121.485,-119.369 105.722,-109.428"/>
<ellipse fill="none" stroke="#1bcf6b" cx="160.304" cy="-143.85" rx="4.00002" ry="4.00002"/>
<polygon fill="#1bcf6b" stroke="#1bcf6b" points="105.378,-109.212 99.3201,-100.071 101.149,-106.544 96.9197,-103.877 96.9197,-103.877 96.9197,-103.877 101.149,-106.544 94.5193,-107.684 105.378,-109.212 105.378,-109.212"/>
</g>
<!-- ThingWidget -->
<g id="node10" class="node"><title>ThingWidget</title>
<ellipse fill="none" stroke="black" cx="186.5" cy="-90" rx="57.6901" ry="18"/>
<text text-anchor="middle" x="186.5" y="-86.3" font-family="Times New Roman,serif" font-size="14.00">ThingWidget</text>
</g>
<!-- Laboratory&#45;&gt;ThingWidget -->
<g id="edge3" class="edge"><title>Laboratory&#45;&gt;ThingWidget</title>
<path fill="none" stroke="#9735da" d="M187.138,-135.64C187.058,-130.063 186.973,-124.132 186.893,-118.476"/>
<ellipse fill="none" stroke="#9735da" cx="187.196" cy="-139.697" rx="4" ry="4"/>
<polygon fill="#9735da" stroke="#9735da" points="186.887,-118.103 191.244,-108.04 186.816,-113.104 186.744,-108.104 186.744,-108.104 186.744,-108.104 186.816,-113.104 182.245,-108.169 186.887,-118.103 186.887,-118.103"/>
</g>
<!-- Rig -->
<g id="node4" class="node"><title>Rig</title>
<ellipse fill="none" stroke="black" cx="320.5" cy="-162" rx="27" ry="18"/>
<text text-anchor="middle" x="320.5" y="-158.3" font-family="Times New Roman,serif" font-size="14.00">Rig</text>
</g>
<!-- SlaveModule -->
<g id="node6" class="node"><title>SlaveModule</title>
<ellipse fill="none" stroke="black" cx="320.5" cy="-90" rx="57.6901" ry="18"/>
<text text-anchor="middle" x="320.5" y="-86.3" font-family="Times New Roman,serif" font-size="14.00">SlaveModule</text>
</g>
<!-- Rig&#45;&gt;SlaveModule -->
<g id="edge4" class="edge"><title>Rig&#45;&gt;SlaveModule</title>
<path fill="none" stroke="#7b4012" d="M320.5,-135.64C320.5,-130.063 320.5,-124.132 320.5,-118.476"/>
<ellipse fill="none" stroke="#7b4012" cx="320.5" cy="-139.697" rx="4" ry="4"/>
<polygon fill="#7b4012" stroke="#7b4012" points="320.5,-118.104 325,-108.104 320.5,-113.104 320.5,-108.104 320.5,-108.104 320.5,-108.104 320.5,-113.104 316,-108.104 320.5,-118.104 320.5,-118.104"/>
</g>
<!-- SlaveWidget -->
<g id="node7" class="node"><title>SlaveWidget</title>
<ellipse fill="none" stroke="black" cx="452.5" cy="-90" rx="56.59" ry="18"/>
<text text-anchor="middle" x="452.5" y="-86.3" font-family="Times New Roman,serif" font-size="14.00">SlaveWidget</text>
</g>
<!-- Rig&#45;&gt;SlaveWidget -->
<g id="edge5" class="edge"><title>Rig&#45;&gt;SlaveWidget</title>
<path fill="none" stroke="#cbbe27" d="M348.369,-146.221C367.925,-135.85 394.279,-121.875 415.581,-110.578"/>
<ellipse fill="none" stroke="#cbbe27" cx="344.659" cy="-148.188" rx="4.00002" ry="4.00002"/>
<polygon fill="#cbbe27" stroke="#cbbe27" points="415.833,-110.445 426.776,-109.735 420.25,-108.102 424.667,-105.76 424.667,-105.76 424.667,-105.76 420.25,-108.102 422.559,-101.784 415.833,-110.445 415.833,-110.445"/>
</g>
<!-- SlaveData -->
<g id="node5" class="node"><title>SlaveData</title>
<ellipse fill="none" stroke="black" cx="320.5" cy="-18" rx="46.5926" ry="18"/>
<text text-anchor="middle" x="320.5" y="-14.3" font-family="Times New Roman,serif" font-size="14.00">SlaveData</text>
</g>
<!-- SlaveModule&#45;&gt;SlaveData -->
<g id="edge6" class="edge"><title>SlaveModule&#45;&gt;SlaveData</title>
<path fill="none" stroke="#b0b7d1" d="M320.5,-63.6398C320.5,-58.0629 320.5,-52.1319 320.5,-46.4761"/>
<ellipse fill="none" stroke="#b0b7d1" cx="320.5" cy="-67.6966" rx="4" ry="4"/>
<polygon fill="#b0b7d1" stroke="#b0b7d1" points="320.5,-46.1043 325,-36.1043 320.5,-41.1043 320.5,-36.1043 320.5,-36.1043 320.5,-36.1043 320.5,-41.1043 316,-36.1044 320.5,-46.1043 320.5,-46.1043"/>
</g>
<!-- ThingData -->
<g id="node9" class="node"><title>ThingData</title>
<ellipse fill="none" stroke="black" cx="76.5" cy="-18" rx="48.1917" ry="18"/>
<text text-anchor="middle" x="76.5" y="-14.3" font-family="Times New Roman,serif" font-size="14.00">ThingData</text>
</g>
<!-- Thing&#45;&gt;ThingData -->
<g id="edge7" class="edge"><title>Thing&#45;&gt;ThingData</title>
<path fill="none" stroke="#cfc0cf" d="M76.5,-63.6398C76.5,-58.0629 76.5,-52.1319 76.5,-46.4761"/>
<ellipse fill="none" stroke="#cfc0cf" cx="76.5" cy="-67.6966" rx="4" ry="4"/>
<polygon fill="#cfc0cf" stroke="#cfc0cf" points="76.5001,-46.1043 81,-36.1043 76.5,-41.1043 76.5,-36.1043 76.5,-36.1043 76.5,-36.1043 76.5,-41.1043 72,-36.1044 76.5001,-46.1043 76.5001,-46.1043"/>
</g>
<!-- User -->
<g id="node11" class="node"><title>User</title>
<ellipse fill="none" stroke="black" cx="254.5" cy="-255" rx="27.8951" ry="18"/>
<text text-anchor="middle" x="254.5" y="-251.3" font-family="Times New Roman,serif" font-size="14.00">User</text>
</g>
<!-- User&#45;&gt;Laboratory -->
<g id="edge9" class="edge"><title>User&#45;&gt;Laboratory</title>
<path fill="none" stroke="#b2dc91" d="M238.014,-231.609C228.202,-218.282 215.739,-201.355 205.648,-187.648"/>
<ellipse fill="none" stroke="#b2dc91" cx="240.458" cy="-234.928" rx="4.00002" ry="4.00002"/>
<polygon fill="#b2dc91" stroke="#b2dc91" points="205.645,-187.644 203.34,-176.924 202.68,-183.618 199.716,-179.592 199.716,-179.592 199.716,-179.592 202.68,-183.618 196.092,-182.26 205.645,-187.644 205.645,-187.644"/>
</g>
<!-- User&#45;&gt;Rig -->
<g id="edge8" class="edge"><title>User&#45;&gt;Rig</title>
<path fill="none" stroke="#e1093b" d="M270.833,-231.48C280.603,-218.01 293.015,-200.896 302.987,-187.147"/>
<ellipse fill="none" stroke="#e1093b" cx="268.345" cy="-234.911" rx="4.00002" ry="4.00002"/>
<polygon fill="#e1093b" stroke="#e1093b" points="303.264,-186.764 312.778,-181.311 306.2,-182.717 309.135,-178.669 309.135,-178.669 309.135,-178.669 306.2,-182.717 305.493,-176.027 303.264,-186.764 303.264,-186.764"/>
</g>
</g>
</svg>
