<?xml version="1.0" encoding="UTF-8" standalone="no"?>
<!DOCTYPE svg PUBLIC "-//W3C//DTD SVG 1.1//EN"
 "http://www.w3.org/Graphics/SVG/1.1/DTD/svg11.dtd">
<!-- Generated by graphviz version 2.38.0 (20140413.2041)
 -->
<!-- Title: models_diagram Pages: 1 -->
<svg width="1042pt" height="1069pt"
 viewBox="0.00 0.00 1042.00 1069.00" xmlns="http://www.w3.org/2000/svg" xmlns:xlink="http://www.w3.org/1999/xlink">
<g id="graph0" class="graph" transform="scale(1 1) rotate(0) translate(4 1065)">
<title>models_diagram</title>
<polygon fill="none" stroke="none" points="-4,4 -4,-1065 1038,-1065 1038,4 -4,4"/>
<!-- _diagram_info -->
<g id="node1" class="node"><title>_diagram_info</title>
<text text-anchor="start" x="139" y="-867.1" font-family="Times New Roman,serif" font-size="13.00">Models diagram</text>
<text text-anchor="start" x="139" y="-853.1" font-family="Times New Roman,serif" font-size="13.00">Date: Feb 19 2016 &#45; 14:54</text>
<text text-anchor="start" x="139" y="-839.1" font-family="Times New Roman,serif" font-size="13.00">Migration version: 20160219023833</text>
<text text-anchor="start" x="139" y="-825.1" font-family="Times New Roman,serif" font-size="13.00">Generated by RailRoady 1.4.2</text>
<text text-anchor="start" x="139" y="-811.1" font-family="Times New Roman,serif" font-size="13.00">http://railroady.prestonlee.com</text>
</g>
<!-- Gateway -->
<g id="node2" class="node"><title>Gateway</title>
<path fill="none" stroke="black" d="M12,-399C12,-399 233,-399 233,-399 239,-399 245,-405 245,-411 245,-411 245,-508 245,-508 245,-514 239,-520 233,-520 233,-520 12,-520 12,-520 6,-520 0,-514 0,-508 0,-508 0,-411 0,-411 0,-405 6,-399 12,-399"/>
<text text-anchor="middle" x="122.5" y="-504.8" font-family="Times New Roman,serif" font-size="14.00">Gateway</text>
<polyline fill="none" stroke="black" points="0,-497 245,-497 "/>
<text text-anchor="start" x="8" y="-481.8" font-family="Times New Roman,serif" font-size="14.00">id :integer</text>
<text text-anchor="start" x="8" y="-466.8" font-family="Times New Roman,serif" font-size="14.00">synched :boolean</text>
<text text-anchor="start" x="8" y="-451.8" font-family="Times New Roman,serif" font-size="14.00">password :character varying(255)</text>
<text text-anchor="start" x="8" y="-436.8" font-family="Times New Roman,serif" font-size="14.00">timestamp :character varying(255)</text>
<text text-anchor="start" x="8" y="-421.8" font-family="Times New Roman,serif" font-size="14.00">created_at :timestamp without time zone</text>
<text text-anchor="start" x="8" y="-406.8" font-family="Times New Roman,serif" font-size="14.00">updated_at :timestamp without time zone</text>
</g>
<!-- Thing -->
<g id="node8" class="node"><title>Thing</title>
<path fill="none" stroke="black" d="M12,-158.5C12,-158.5 233,-158.5 233,-158.5 239,-158.5 245,-164.5 245,-170.5 245,-170.5 245,-282.5 245,-282.5 245,-288.5 239,-294.5 233,-294.5 233,-294.5 12,-294.5 12,-294.5 6,-294.5 0,-288.5 0,-282.5 0,-282.5 0,-170.5 0,-170.5 0,-164.5 6,-158.5 12,-158.5"/>
<text text-anchor="middle" x="122.5" y="-279.3" font-family="Times New Roman,serif" font-size="14.00">Thing</text>
<polyline fill="none" stroke="black" points="0,-271.5 245,-271.5 "/>
<text text-anchor="start" x="8" y="-256.3" font-family="Times New Roman,serif" font-size="14.00">id :integer</text>
<text text-anchor="start" x="8" y="-241.3" font-family="Times New Roman,serif" font-size="14.00">gateway_id :integer</text>
<text text-anchor="start" x="8" y="-226.3" font-family="Times New Roman,serif" font-size="14.00">thing_type :integer</text>
<text text-anchor="start" x="8" y="-211.3" font-family="Times New Roman,serif" font-size="14.00">thing_addr :integer</text>
<text text-anchor="start" x="8" y="-196.3" font-family="Times New Roman,serif" font-size="14.00">timestamp :character varying(255)</text>
<text text-anchor="start" x="8" y="-181.3" font-family="Times New Roman,serif" font-size="14.00">created_at :timestamp without time zone</text>
<text text-anchor="start" x="8" y="-166.3" font-family="Times New Roman,serif" font-size="14.00">updated_at :timestamp without time zone</text>
</g>
<!-- Gateway&#45;&gt;Thing -->
<g id="edge1" class="edge"><title>Gateway&#45;&gt;Thing</title>
<path fill="none" stroke="#1415dc" d="M122.5,-390.353C122.5,-363.497 122.5,-332.511 122.5,-304.822"/>
<ellipse fill="none" stroke="#1415dc" cx="122.5" cy="-394.711" rx="4" ry="4"/>
<polygon fill="#1415dc" stroke="#1415dc" points="122.5,-304.784 127,-294.784 122.5,-299.784 122.5,-294.784 122.5,-294.784 122.5,-294.784 122.5,-299.784 118,-294.784 122.5,-304.784 122.5,-304.784"/>
</g>
<!-- Laboratory -->
<g id="node3" class="node"><title>Laboratory</title>
<path fill="none" stroke="black" d="M275,-331.5C275,-331.5 496,-331.5 496,-331.5 502,-331.5 508,-337.5 508,-343.5 508,-343.5 508,-575.5 508,-575.5 508,-581.5 502,-587.5 496,-587.5 496,-587.5 275,-587.5 275,-587.5 269,-587.5 263,-581.5 263,-575.5 263,-575.5 263,-343.5 263,-343.5 263,-337.5 269,-331.5 275,-331.5"/>
<text text-anchor="middle" x="385.5" y="-572.3" font-family="Times New Roman,serif" font-size="14.00">Laboratory</text>
<polyline fill="none" stroke="black" points="263,-564.5 508,-564.5 "/>
<text text-anchor="start" x="271" y="-549.3" font-family="Times New Roman,serif" font-size="14.00">id :integer</text>
<text text-anchor="start" x="271" y="-534.3" font-family="Times New Roman,serif" font-size="14.00">title :character varying(255)</text>
<text text-anchor="start" x="271" y="-519.3" font-family="Times New Roman,serif" font-size="14.00">laboratory_type :integer</text>
<text text-anchor="start" x="271" y="-504.3" font-family="Times New Roman,serif" font-size="14.00">user_id :integer</text>
<text text-anchor="start" x="271" y="-489.3" font-family="Times New Roman,serif" font-size="14.00">description :text</text>
<text text-anchor="start" x="271" y="-474.3" font-family="Times New Roman,serif" font-size="14.00">pdf_file :character varying(255)</text>
<text text-anchor="start" x="271" y="-459.3" font-family="Times New Roman,serif" font-size="14.00">ui_json :text</text>
<text text-anchor="start" x="271" y="-444.3" font-family="Times New Roman,serif" font-size="14.00">laboratory_hash :character varying(255)</text>
<text text-anchor="start" x="271" y="-429.3" font-family="Times New Roman,serif" font-size="14.00">published :boolean</text>
<text text-anchor="start" x="271" y="-414.3" font-family="Times New Roman,serif" font-size="14.00">default :character varying(255)</text>
<text text-anchor="start" x="271" y="-399.3" font-family="Times New Roman,serif" font-size="14.00">false :character varying(255)</text>
<text text-anchor="start" x="271" y="-384.3" font-family="Times New Roman,serif" font-size="14.00">password :character varying(255)</text>
<text text-anchor="start" x="271" y="-369.3" font-family="Times New Roman,serif" font-size="14.00">timestamp :character varying(255)</text>
<text text-anchor="start" x="271" y="-354.3" font-family="Times New Roman,serif" font-size="14.00">created_at :timestamp without time zone</text>
<text text-anchor="start" x="271" y="-339.3" font-family="Times New Roman,serif" font-size="14.00">updated_at :timestamp without time zone</text>
</g>
<!-- Laboratory&#45;&gt;Thing -->
<g id="edge2" class="edge"><title>Laboratory&#45;&gt;Thing</title>
<path fill="none" stroke="#06adb3" d="M256.724,-333.829C255.647,-332.88 254.572,-331.937 253.5,-331 242.133,-321.063 229.968,-310.885 217.8,-300.975"/>
<ellipse fill="none" stroke="#06adb3" cx="259.923" cy="-336.667" rx="4.00002" ry="4.00002"/>
<polygon fill="#06adb3" stroke="#06adb3" points="217.584,-300.8 212.644,-291.01 213.698,-297.653 209.812,-294.507 209.812,-294.507 209.812,-294.507 213.698,-297.653 206.981,-298.004 217.584,-300.8 217.584,-300.8"/>
</g>
<!-- ThingWidget -->
<g id="node10" class="node"><title>ThingWidget</title>
<path fill="none" stroke="black" d="M275,-158.5C275,-158.5 496,-158.5 496,-158.5 502,-158.5 508,-164.5 508,-170.5 508,-170.5 508,-282.5 508,-282.5 508,-288.5 502,-294.5 496,-294.5 496,-294.5 275,-294.5 275,-294.5 269,-294.5 263,-288.5 263,-282.5 263,-282.5 263,-170.5 263,-170.5 263,-164.5 269,-158.5 275,-158.5"/>
<text text-anchor="middle" x="385.5" y="-279.3" font-family="Times New Roman,serif" font-size="14.00">ThingWidget</text>
<polyline fill="none" stroke="black" points="263,-271.5 508,-271.5 "/>
<text text-anchor="start" x="271" y="-256.3" font-family="Times New Roman,serif" font-size="14.00">id :integer</text>
<text text-anchor="start" x="271" y="-241.3" font-family="Times New Roman,serif" font-size="14.00">gateway_id :integer</text>
<text text-anchor="start" x="271" y="-226.3" font-family="Times New Roman,serif" font-size="14.00">settings :text</text>
<text text-anchor="start" x="271" y="-211.3" font-family="Times New Roman,serif" font-size="14.00">enabled :boolean</text>
<text text-anchor="start" x="271" y="-196.3" font-family="Times New Roman,serif" font-size="14.00">timestamp :character varying(255)</text>
<text text-anchor="start" x="271" y="-181.3" font-family="Times New Roman,serif" font-size="14.00">created_at :timestamp without time zone</text>
<text text-anchor="start" x="271" y="-166.3" font-family="Times New Roman,serif" font-size="14.00">updated_at :timestamp without time zone</text>
</g>
<!-- Laboratory&#45;&gt;ThingWidget -->
<g id="edge3" class="edge"><title>Laboratory&#45;&gt;ThingWidget</title>
<path fill="none" stroke="#f1f6be" d="M385.5,-322.972C385.5,-316.898 385.5,-310.9 385.5,-305.048"/>
<ellipse fill="none" stroke="#f1f6be" cx="385.5" cy="-327.175" rx="4" ry="4"/>
<polygon fill="#f1f6be" stroke="#f1f6be" points="385.5,-304.688 390,-294.688 385.5,-299.688 385.5,-294.688 385.5,-294.688 385.5,-294.688 385.5,-299.688 381,-294.688 385.5,-304.688 385.5,-304.688"/>
</g>
<!-- Rig -->
<g id="node4" class="node"><title>Rig</title>
<path fill="none" stroke="black" d="M538,-346.5C538,-346.5 759,-346.5 759,-346.5 765,-346.5 771,-352.5 771,-358.5 771,-358.5 771,-560.5 771,-560.5 771,-566.5 765,-572.5 759,-572.5 759,-572.5 538,-572.5 538,-572.5 532,-572.5 526,-566.5 526,-560.5 526,-560.5 526,-358.5 526,-358.5 526,-352.5 532,-346.5 538,-346.5"/>
<text text-anchor="middle" x="648.5" y="-557.3" font-family="Times New Roman,serif" font-size="14.00">Rig</text>
<polyline fill="none" stroke="black" points="526,-549.5 771,-549.5 "/>
<text text-anchor="start" x="534" y="-534.3" font-family="Times New Roman,serif" font-size="14.00">id :integer</text>
<text text-anchor="start" x="534" y="-519.3" font-family="Times New Roman,serif" font-size="14.00">title :character varying(255)</text>
<text text-anchor="start" x="534" y="-504.3" font-family="Times New Roman,serif" font-size="14.00">rig_type :integer</text>
<text text-anchor="start" x="534" y="-489.3" font-family="Times New Roman,serif" font-size="14.00">user_id :integer</text>
<text text-anchor="start" x="534" y="-474.3" font-family="Times New Roman,serif" font-size="14.00">description :text</text>
<text text-anchor="start" x="534" y="-459.3" font-family="Times New Roman,serif" font-size="14.00">pdf_file :character varying(255)</text>
<text text-anchor="start" x="534" y="-444.3" font-family="Times New Roman,serif" font-size="14.00">created_at :timestamp without time zone</text>
<text text-anchor="start" x="534" y="-429.3" font-family="Times New Roman,serif" font-size="14.00">updated_at :timestamp without time zone</text>
<text text-anchor="start" x="534" y="-414.3" font-family="Times New Roman,serif" font-size="14.00">ui_json :text</text>
<text text-anchor="start" x="534" y="-399.3" font-family="Times New Roman,serif" font-size="14.00">rig_hash :character varying(255)</text>
<text text-anchor="start" x="534" y="-384.3" font-family="Times New Roman,serif" font-size="14.00">synced :boolean</text>
<text text-anchor="start" x="534" y="-369.3" font-family="Times New Roman,serif" font-size="14.00">published :boolean</text>
<text text-anchor="start" x="534" y="-354.3" font-family="Times New Roman,serif" font-size="14.00">password :character varying(255)</text>
</g>
<!-- SlaveModule -->
<g id="node6" class="node"><title>SlaveModule</title>
<path fill="none" stroke="black" d="M538,-166C538,-166 759,-166 759,-166 765,-166 771,-172 771,-178 771,-178 771,-275 771,-275 771,-281 765,-287 759,-287 759,-287 538,-287 538,-287 532,-287 526,-281 526,-275 526,-275 526,-178 526,-178 526,-172 532,-166 538,-166"/>
<text text-anchor="middle" x="648.5" y="-271.8" font-family="Times New Roman,serif" font-size="14.00">SlaveModule</text>
<polyline fill="none" stroke="black" points="526,-264 771,-264 "/>
<text text-anchor="start" x="534" y="-248.8" font-family="Times New Roman,serif" font-size="14.00">id :integer</text>
<text text-anchor="start" x="534" y="-233.8" font-family="Times New Roman,serif" font-size="14.00">rig_id :integer</text>
<text text-anchor="start" x="534" y="-218.8" font-family="Times New Roman,serif" font-size="14.00">s_type :integer</text>
<text text-anchor="start" x="534" y="-203.8" font-family="Times New Roman,serif" font-size="14.00">s_addr :integer</text>
<text text-anchor="start" x="534" y="-188.8" font-family="Times New Roman,serif" font-size="14.00">created_at :timestamp without time zone</text>
<text text-anchor="start" x="534" y="-173.8" font-family="Times New Roman,serif" font-size="14.00">updated_at :timestamp without time zone</text>
</g>
<!-- Rig&#45;&gt;SlaveModule -->
<g id="edge4" class="edge"><title>Rig&#45;&gt;SlaveModule</title>
<path fill="none" stroke="#86eda2" d="M648.5,-338.229C648.5,-324.233 648.5,-310.331 648.5,-297.347"/>
<ellipse fill="none" stroke="#86eda2" cx="648.5" cy="-342.383" rx="4" ry="4"/>
<polygon fill="#86eda2" stroke="#86eda2" points="648.5,-297.145 653,-287.145 648.5,-292.145 648.5,-287.145 648.5,-287.145 648.5,-287.145 648.5,-292.145 644,-287.145 648.5,-297.145 648.5,-297.145"/>
</g>
<!-- SlaveWidget -->
<g id="node7" class="node"><title>SlaveWidget</title>
<path fill="none" stroke="black" d="M801,-166C801,-166 1022,-166 1022,-166 1028,-166 1034,-172 1034,-178 1034,-178 1034,-275 1034,-275 1034,-281 1028,-287 1022,-287 1022,-287 801,-287 801,-287 795,-287 789,-281 789,-275 789,-275 789,-178 789,-178 789,-172 795,-166 801,-166"/>
<text text-anchor="middle" x="911.5" y="-271.8" font-family="Times New Roman,serif" font-size="14.00">SlaveWidget</text>
<polyline fill="none" stroke="black" points="789,-264 1034,-264 "/>
<text text-anchor="start" x="797" y="-248.8" font-family="Times New Roman,serif" font-size="14.00">id :integer</text>
<text text-anchor="start" x="797" y="-233.8" font-family="Times New Roman,serif" font-size="14.00">rig_id :integer</text>
<text text-anchor="start" x="797" y="-218.8" font-family="Times New Roman,serif" font-size="14.00">settings :text</text>
<text text-anchor="start" x="797" y="-203.8" font-family="Times New Roman,serif" font-size="14.00">enabled :boolean</text>
<text text-anchor="start" x="797" y="-188.8" font-family="Times New Roman,serif" font-size="14.00">created_at :timestamp without time zone</text>
<text text-anchor="start" x="797" y="-173.8" font-family="Times New Roman,serif" font-size="14.00">updated_at :timestamp without time zone</text>
</g>
<!-- Rig&#45;&gt;SlaveWidget -->
<g id="edge5" class="edge"><title>Rig&#45;&gt;SlaveWidget</title>
<path fill="none" stroke="#9ad761" d="M777.282,-345.388C797.325,-327.783 817.453,-310.104 835.801,-293.988"/>
<ellipse fill="none" stroke="#9ad761" cx="774.15" cy="-348.138" rx="4.00002" ry="4.00002"/>
<polygon fill="#9ad761" stroke="#9ad761" points="836.037,-293.781 846.52,-290.563 839.794,-290.481 843.551,-287.182 843.551,-287.182 843.551,-287.182 839.794,-290.481 840.581,-283.801 836.037,-293.781 836.037,-293.781"/>
</g>
<!-- SlaveData -->
<g id="node5" class="node"><title>SlaveData</title>
<path fill="none" stroke="black" d="M538,-0.5C538,-0.5 759,-0.5 759,-0.5 765,-0.5 771,-6.5 771,-12.5 771,-12.5 771,-109.5 771,-109.5 771,-115.5 765,-121.5 759,-121.5 759,-121.5 538,-121.5 538,-121.5 532,-121.5 526,-115.5 526,-109.5 526,-109.5 526,-12.5 526,-12.5 526,-6.5 532,-0.5 538,-0.5"/>
<text text-anchor="middle" x="648.5" y="-106.3" font-family="Times New Roman,serif" font-size="14.00">SlaveData</text>
<polyline fill="none" stroke="black" points="526,-98.5 771,-98.5 "/>
<text text-anchor="start" x="534" y="-83.3" font-family="Times New Roman,serif" font-size="14.00">id :integer</text>
<text text-anchor="start" x="534" y="-68.3" font-family="Times New Roman,serif" font-size="14.00">slave_module_id :integer</text>
<text text-anchor="start" x="534" y="-53.3" font-family="Times New Roman,serif" font-size="14.00">data :text</text>
<text text-anchor="start" x="534" y="-38.3" font-family="Times New Roman,serif" font-size="14.00">created_at :timestamp without time zone</text>
<text text-anchor="start" x="534" y="-23.3" font-family="Times New Roman,serif" font-size="14.00">updated_at :timestamp without time zone</text>
<text text-anchor="start" x="534" y="-8.3" font-family="Times New Roman,serif" font-size="14.00">pin :integer</text>
</g>
<!-- SlaveModule&#45;&gt;SlaveData -->
<g id="edge6" class="edge"><title>SlaveModule&#45;&gt;SlaveData</title>
<path fill="none" stroke="#e448cb" d="M648.5,-157.41C648.5,-148.976 648.5,-140.342 648.5,-131.881"/>
<ellipse fill="none" stroke="#e448cb" cx="648.5" cy="-161.547" rx="4" ry="4"/>
<polygon fill="#e448cb" stroke="#e448cb" points="648.5,-131.672 653,-121.672 648.5,-126.672 648.5,-121.672 648.5,-121.672 648.5,-121.672 648.5,-126.672 644,-121.672 648.5,-131.672 648.5,-131.672"/>
</g>
<!-- ThingData -->
<g id="node9" class="node"><title>ThingData</title>
<path fill="none" stroke="black" d="M12,-0.5C12,-0.5 233,-0.5 233,-0.5 239,-0.5 245,-6.5 245,-12.5 245,-12.5 245,-109.5 245,-109.5 245,-115.5 239,-121.5 233,-121.5 233,-121.5 12,-121.5 12,-121.5 6,-121.5 0,-115.5 0,-109.5 0,-109.5 0,-12.5 0,-12.5 0,-6.5 6,-0.5 12,-0.5"/>
<text text-anchor="middle" x="122.5" y="-106.3" font-family="Times New Roman,serif" font-size="14.00">ThingData</text>
<polyline fill="none" stroke="black" points="0,-98.5 245,-98.5 "/>
<text text-anchor="start" x="8" y="-83.3" font-family="Times New Roman,serif" font-size="14.00">id :integer</text>
<text text-anchor="start" x="8" y="-68.3" font-family="Times New Roman,serif" font-size="14.00">thing_id :integer</text>
<text text-anchor="start" x="8" y="-53.3" font-family="Times New Roman,serif" font-size="14.00">data :text</text>
<text text-anchor="start" x="8" y="-38.3" font-family="Times New Roman,serif" font-size="14.00">timestamp :character varying(255)</text>
<text text-anchor="start" x="8" y="-23.3" font-family="Times New Roman,serif" font-size="14.00">created_at :timestamp without time zone</text>
<text text-anchor="start" x="8" y="-8.3" font-family="Times New Roman,serif" font-size="14.00">updated_at :timestamp without time zone</text>
</g>
<!-- Thing&#45;&gt;ThingData -->
<g id="edge7" class="edge"><title>Thing&#45;&gt;ThingData</title>
<path fill="none" stroke="#461448" d="M122.5,-149.81C122.5,-143.918 122.5,-137.984 122.5,-132.13"/>
<ellipse fill="none" stroke="#461448" cx="122.5" cy="-154.054" rx="4" ry="4"/>
<polygon fill="#461448" stroke="#461448" points="122.5,-131.709 127,-121.709 122.5,-126.709 122.5,-121.709 122.5,-121.709 122.5,-121.709 122.5,-126.709 118,-121.709 122.5,-131.709 122.5,-131.709"/>
</g>
<!-- User -->
<g id="node11" class="node"><title>User</title>
<path fill="none" stroke="black" d="M370.5,-624.5C370.5,-624.5 664.5,-624.5 664.5,-624.5 670.5,-624.5 676.5,-630.5 676.5,-636.5 676.5,-636.5 676.5,-1048.5 676.5,-1048.5 676.5,-1054.5 670.5,-1060.5 664.5,-1060.5 664.5,-1060.5 370.5,-1060.5 370.5,-1060.5 364.5,-1060.5 358.5,-1054.5 358.5,-1048.5 358.5,-1048.5 358.5,-636.5 358.5,-636.5 358.5,-630.5 364.5,-624.5 370.5,-624.5"/>
<text text-anchor="middle" x="517.5" y="-1045.3" font-family="Times New Roman,serif" font-size="14.00">User</text>
<polyline fill="none" stroke="black" points="358.5,-1037.5 676.5,-1037.5 "/>
<text text-anchor="start" x="366.5" y="-1022.3" font-family="Times New Roman,serif" font-size="14.00">id :integer</text>
<text text-anchor="start" x="366.5" y="-1007.3" font-family="Times New Roman,serif" font-size="14.00">email :character varying(255)</text>
<text text-anchor="start" x="366.5" y="-992.3" font-family="Times New Roman,serif" font-size="14.00">encrypted_password :character varying(255)</text>
<text text-anchor="start" x="366.5" y="-977.3" font-family="Times New Roman,serif" font-size="14.00">reset_password_token :character varying(255)</text>
<text text-anchor="start" x="366.5" y="-962.3" font-family="Times New Roman,serif" font-size="14.00">reset_password_sent_at :timestamp without time zone</text>
<text text-anchor="start" x="366.5" y="-947.3" font-family="Times New Roman,serif" font-size="14.00">remember_created_at :timestamp without time zone</text>
<text text-anchor="start" x="366.5" y="-932.3" font-family="Times New Roman,serif" font-size="14.00">sign_in_count :integer</text>
<text text-anchor="start" x="366.5" y="-917.3" font-family="Times New Roman,serif" font-size="14.00">current_sign_in_at :timestamp without time zone</text>
<text text-anchor="start" x="366.5" y="-902.3" font-family="Times New Roman,serif" font-size="14.00">last_sign_in_at :timestamp without time zone</text>
<text text-anchor="start" x="366.5" y="-887.3" font-family="Times New Roman,serif" font-size="14.00">current_sign_in_ip :inet</text>
<text text-anchor="start" x="366.5" y="-872.3" font-family="Times New Roman,serif" font-size="14.00">last_sign_in_ip :inet</text>
<text text-anchor="start" x="366.5" y="-857.3" font-family="Times New Roman,serif" font-size="14.00">created_at :timestamp without time zone</text>
<text text-anchor="start" x="366.5" y="-842.3" font-family="Times New Roman,serif" font-size="14.00">updated_at :timestamp without time zone</text>
<text text-anchor="start" x="366.5" y="-827.3" font-family="Times New Roman,serif" font-size="14.00">name :character varying(255)</text>
<text text-anchor="start" x="366.5" y="-812.3" font-family="Times New Roman,serif" font-size="14.00">confirmation_token :character varying(255)</text>
<text text-anchor="start" x="366.5" y="-797.3" font-family="Times New Roman,serif" font-size="14.00">confirmed_at :timestamp without time zone</text>
<text text-anchor="start" x="366.5" y="-782.3" font-family="Times New Roman,serif" font-size="14.00">confirmation_sent_at :timestamp without time zone</text>
<text text-anchor="start" x="366.5" y="-767.3" font-family="Times New Roman,serif" font-size="14.00">unconfirmed_email :character varying(255)</text>
<text text-anchor="start" x="366.5" y="-752.3" font-family="Times New Roman,serif" font-size="14.00">role :integer</text>
<text text-anchor="start" x="366.5" y="-737.3" font-family="Times New Roman,serif" font-size="14.00">invitation_token :character varying(255)</text>
<text text-anchor="start" x="366.5" y="-722.3" font-family="Times New Roman,serif" font-size="14.00">invitation_created_at :timestamp without time zone</text>
<text text-anchor="start" x="366.5" y="-707.3" font-family="Times New Roman,serif" font-size="14.00">invitation_sent_at :timestamp without time zone</text>
<text text-anchor="start" x="366.5" y="-692.3" font-family="Times New Roman,serif" font-size="14.00">invitation_accepted_at :timestamp without time zone</text>
<text text-anchor="start" x="366.5" y="-677.3" font-family="Times New Roman,serif" font-size="14.00">invitation_limit :integer</text>
<text text-anchor="start" x="366.5" y="-662.3" font-family="Times New Roman,serif" font-size="14.00">invited_by_id :integer</text>
<text text-anchor="start" x="366.5" y="-647.3" font-family="Times New Roman,serif" font-size="14.00">invited_by_type :character varying(255)</text>
<text text-anchor="start" x="366.5" y="-632.3" font-family="Times New Roman,serif" font-size="14.00">invitations_count :integer</text>
</g>
<!-- User&#45;&gt;Laboratory -->
<g id="edge9" class="edge"><title>User&#45;&gt;Laboratory</title>
<path fill="none" stroke="#9991e4" d="M439.543,-616.486C437.337,-610.121 435.15,-603.809 432.992,-597.58"/>
<ellipse fill="none" stroke="#9991e4" cx="440.936" cy="-620.51" rx="4.00001" ry="4.00001"/>
<polygon fill="#9991e4" stroke="#9991e4" points="432.9,-597.313 433.878,-586.391 431.263,-592.589 429.626,-587.864 429.626,-587.864 429.626,-587.864 431.263,-592.589 425.374,-589.337 432.9,-597.313 432.9,-597.313"/>
</g>
<!-- User&#45;&gt;Rig -->
<g id="edge8" class="edge"><title>User&#45;&gt;Rig</title>
<path fill="none" stroke="#9125ce" d="M594.888,-616.424C598.876,-604.828 602.802,-593.408 606.606,-582.345"/>
<ellipse fill="none" stroke="#9125ce" cx="593.485" cy="-620.507" rx="4.00001" ry="4.00001"/>
<polygon fill="#9125ce" stroke="#9125ce" points="606.664,-582.176 614.171,-574.183 608.289,-577.448 609.915,-572.72 609.915,-572.72 609.915,-572.72 608.289,-577.448 605.66,-571.257 606.664,-582.176 606.664,-582.176"/>
</g>
</g>
</svg>
