<?xml version="1.0" encoding="UTF-8" standalone="no"?>
<!DOCTYPE svg PUBLIC "-//W3C//DTD SVG 1.1//EN"
 "http://www.w3.org/Graphics/SVG/1.1/DTD/svg11.dtd">
<!-- Generated by graphviz version 2.38.0 (20140413.2041)
 -->
<!-- Title: models_diagram Pages: 1 -->
<svg width="518pt" height="302pt"
 viewBox="0.00 0.00 518.34 302.00" xmlns="http://www.w3.org/2000/svg" xmlns:xlink="http://www.w3.org/1999/xlink">
<g id="graph0" class="graph" transform="scale(1 1) rotate(0) translate(4 298)">
<title>models_diagram</title>
<polygon fill="none" stroke="none" points="-4,4 -4,-298 514.345,-298 514.345,4 -4,4"/>
<!-- _diagram_info -->
<g id="node1" class="node"><title>_diagram_info</title>
<text text-anchor="start" x="8" y="-279.6" font-family="Times New Roman,serif" font-size="13.00">Models diagram</text>
<text text-anchor="start" x="8" y="-265.6" font-family="Times New Roman,serif" font-size="13.00">Date: Mar 22 2016 &#45; 12:40</text>
<text text-anchor="start" x="8" y="-251.6" font-family="Times New Roman,serif" font-size="13.00">Migration version: 20160315000143</text>
<text text-anchor="start" x="8" y="-237.6" font-family="Times New Roman,serif" font-size="13.00">Generated by RailRoady 1.4.2</text>
<text text-anchor="start" x="8" y="-223.6" font-family="Times New Roman,serif" font-size="13.00">http://railroady.prestonlee.com</text>
</g>
<!-- Gateway -->
<g id="node2" class="node"><title>Gateway</title>
<ellipse fill="none" stroke="black" cx="42.5" cy="-162" rx="42.4939" ry="18"/>
<text text-anchor="middle" x="42.5" y="-158.3" font-family="Times New Roman,serif" font-size="14.00">Gateway</text>
</g>
<!-- Thing -->
<g id="node6" class="node"><title>Thing</title>
<ellipse fill="none" stroke="black" cx="42.5" cy="-90" rx="31.6951" ry="18"/>
<text text-anchor="middle" x="42.5" y="-86.3" font-family="Times New Roman,serif" font-size="14.00">Thing</text>
</g>
<!-- Gateway&#45;&gt;Thing -->
<g id="edge1" class="edge"><title>Gateway&#45;&gt;Thing</title>
<path fill="none" stroke="#70ee5e" d="M42.5,-135.64C42.5,-130.063 42.5,-124.132 42.5,-118.476"/>
<ellipse fill="none" stroke="#70ee5e" cx="42.5" cy="-139.697" rx="4" ry="4"/>
<polygon fill="#70ee5e" stroke="#70ee5e" points="42.5001,-118.104 47,-108.104 42.5,-113.104 42.5,-108.104 42.5,-108.104 42.5,-108.104 42.5,-113.104 38,-108.104 42.5001,-118.104 42.5001,-118.104"/>
</g>
<!-- Laboratory -->
<g id="node3" class="node"><title>Laboratory</title>
<ellipse fill="none" stroke="black" cx="188.5" cy="-162" rx="51.1914" ry="18"/>
<text text-anchor="middle" x="188.5" y="-158.3" font-family="Times New Roman,serif" font-size="14.00">Laboratory</text>
</g>
<!-- Laboratory&#45;&gt;Thing -->
<g id="edge2" class="edge"><title>Laboratory&#45;&gt;Thing</title>
<path fill="none" stroke="#5b5181" d="M150.269,-142.67C127.007,-131.517 97.5981,-117.417 75.3809,-106.765"/>
<polygon fill="#5b5181" stroke="#5b5181" points="150.288,-142.679 157.36,-151.06 154.797,-144.841 159.306,-147.003 159.306,-147.003 159.306,-147.003 154.797,-144.841 161.251,-142.945 150.288,-142.679 150.288,-142.679"/>
<polygon fill="#5b5181" stroke="#5b5181" points="75.3555,-106.753 68.2839,-98.3716 70.847,-104.591 66.3384,-102.429 66.3384,-102.429 66.3384,-102.429 70.847,-104.591 64.3929,-106.487 75.3555,-106.753 75.3555,-106.753"/>
</g>
<!-- ThingLog -->
<g id="node7" class="node"><title>ThingLog</title>
<ellipse fill="none" stroke="black" cx="72.5" cy="-18" rx="46.2923" ry="18"/>
<text text-anchor="middle" x="72.5" y="-14.3" font-family="Times New Roman,serif" font-size="14.00">ThingLog</text>
</g>
<!-- Laboratory&#45;&gt;ThingLog -->
<g id="edge3" class="edge"><title>Laboratory&#45;&gt;ThingLog</title>
<path fill="none" stroke="#9548c5" d="M156.436,-139.741C144.543,-130.856 131.524,-119.842 121.5,-108 105.392,-88.9685 92.1322,-63.818 83.4872,-45.109"/>
<polygon fill="#9548c5" stroke="#9548c5" points="156.734,-139.957 162.201,-149.463 160.786,-142.887 164.838,-145.816 164.838,-145.816 164.838,-145.816 160.786,-142.887 167.474,-142.17 156.734,-139.957 156.734,-139.957"/>
<polygon fill="#9548c5" stroke="#9548c5" points="83.4854,-45.1048 83.503,-34.139 81.4409,-40.5419 79.3964,-35.979 79.3964,-35.979 79.3964,-35.979 81.4409,-40.5419 75.2898,-37.8191 83.4854,-45.1048 83.4854,-45.1048"/>
</g>
<!-- ThingWidget -->
<g id="node8" class="node"><title>ThingWidget</title>
<ellipse fill="none" stroke="black" cx="188.5" cy="-90" rx="57.6901" ry="18"/>
<text text-anchor="middle" x="188.5" y="-86.3" font-family="Times New Roman,serif" font-size="14.00">ThingWidget</text>
</g>
<!-- Laboratory&#45;&gt;ThingWidget -->
<g id="edge4" class="edge"><title>Laboratory&#45;&gt;ThingWidget</title>
<path fill="none" stroke="#7ede54" d="M182,-135.987C181.705,-130.249 181.671,-124.121 181.898,-118.293"/>
<ellipse fill="none" stroke="#7ede54" cx="182.315" cy="-140.067" rx="4" ry="4"/>
<polygon fill="#7ede54" stroke="#7ede54" points="181.9,-118.252 187.077,-108.584 182.244,-113.263 182.587,-108.275 182.587,-108.275 182.587,-108.275 182.244,-113.263 178.098,-107.966 181.9,-118.252 181.9,-118.252"/>
</g>
<!-- Rig -->
<g id="node4" class="node"><title>Rig</title>
<ellipse fill="none" stroke="black" cx="320.5" cy="-162" rx="27" ry="18"/>
<text text-anchor="middle" x="320.5" y="-158.3" font-family="Times New Roman,serif" font-size="14.00">Rig</text>
</g>
<!-- SlaveWidget -->
<g id="node5" class="node"><title>SlaveWidget</title>
<ellipse fill="none" stroke="black" cx="320.5" cy="-90" rx="56.59" ry="18"/>
<text text-anchor="middle" x="320.5" y="-86.3" font-family="Times New Roman,serif" font-size="14.00">SlaveWidget</text>
</g>
<!-- Rig&#45;&gt;SlaveWidget -->
<g id="edge6" class="edge"><title>Rig&#45;&gt;SlaveWidget</title>
<path fill="none" stroke="#a0d01e" d="M320.5,-135.64C320.5,-130.063 320.5,-124.132 320.5,-118.476"/>
<ellipse fill="none" stroke="#a0d01e" cx="320.5" cy="-139.697" rx="4" ry="4"/>
<polygon fill="#a0d01e" stroke="#a0d01e" points="320.5,-118.104 325,-108.104 320.5,-113.104 320.5,-108.104 320.5,-108.104 320.5,-108.104 320.5,-113.104 316,-108.104 320.5,-118.104 320.5,-118.104"/>
</g>
<!-- SlaveModule -->
<g id="node10" class="node"><title>SlaveModule</title>
<ellipse fill="none" stroke="black" cx="452.5" cy="-90" rx="57.6901" ry="18"/>
<text text-anchor="middle" x="452.5" y="-86.3" font-family="Times New Roman,serif" font-size="14.00">SlaveModule</text>
</g>
<!-- Rig&#45;&gt;SlaveModule -->
<g id="edge5" class="edge"><title>Rig&#45;&gt;SlaveModule</title>
<path fill="none" stroke="#47a6e3" d="M348.32,-146.247C367.738,-135.949 393.877,-122.088 415.114,-110.826"/>
<ellipse fill="none" stroke="#47a6e3" cx="344.659" cy="-148.188" rx="4.00002" ry="4.00002"/>
<polygon fill="#47a6e3" stroke="#47a6e3" points="415.348,-110.702 426.291,-109.992 419.765,-108.359 424.183,-106.017 424.183,-106.017 424.183,-106.017 419.765,-108.359 422.074,-102.041 415.348,-110.702 415.348,-110.702"/>
</g>
<!-- Thing&#45;&gt;ThingLog -->
<g id="edge7" class="edge"><title>Thing&#45;&gt;ThingLog</title>
<path fill="none" stroke="#168468" d="M52.8809,-64.7779C55.5526,-58.544 58.4409,-51.8046 61.1586,-45.4634"/>
<ellipse fill="none" stroke="#168468" cx="51.1853" cy="-68.7344" rx="4.00002" ry="4.00002"/>
<polygon fill="#168468" stroke="#168468" points="61.2938,-45.1477 69.3692,-37.7289 63.2634,-40.5519 65.2331,-35.9562 65.2331,-35.9562 65.2331,-35.9562 63.2634,-40.5519 61.0969,-34.1835 61.2938,-45.1477 61.2938,-45.1477"/>
</g>
<!-- ThingWidget&#45;&gt;Laboratory -->
<g id="edge8" class="edge"><title>ThingWidget&#45;&gt;Laboratory</title>
<path fill="none" stroke="#240841" d="M195.105,-118.355C195.303,-123.499 195.298,-128.873 195.091,-134.005"/>
<polygon fill="#240841" stroke="#240841" points="195.098,-118.252 198.902,-107.967 194.755,-113.264 194.413,-108.275 194.413,-108.275 194.413,-108.275 194.755,-113.264 189.923,-108.584 195.098,-118.252 195.098,-118.252"/>
<polygon fill="#240841" stroke="#240841" points="195.085,-134.08 189.889,-143.737 194.732,-139.067 194.378,-144.055 194.378,-144.055 194.378,-144.055 194.732,-139.067 198.867,-144.373 195.085,-134.08 195.085,-134.08"/>
</g>
<!-- User -->
<g id="node9" class="node"><title>User</title>
<ellipse fill="none" stroke="black" cx="254.5" cy="-255" rx="27.8951" ry="18"/>
<text text-anchor="middle" x="254.5" y="-251.3" font-family="Times New Roman,serif" font-size="14.00">User</text>
</g>
<!-- User&#45;&gt;Laboratory -->
<g id="edge10" class="edge"><title>User&#45;&gt;Laboratory</title>
<path fill="none" stroke="#895763" d="M238.26,-231.609C228.686,-218.408 216.549,-201.674 206.659,-188.037"/>
<ellipse fill="none" stroke="#895763" cx="240.655" cy="-234.911" rx="4.00002" ry="4.00002"/>
<polygon fill="#895763" stroke="#895763" points="206.405,-187.687 204.176,-176.95 203.469,-183.639 200.533,-179.592 200.533,-179.592 200.533,-179.592 203.469,-183.639 196.891,-182.234 206.405,-187.687 206.405,-187.687"/>
</g>
<!-- User&#45;&gt;Rig -->
<g id="edge9" class="edge"><title>User&#45;&gt;Rig</title>
<path fill="none" stroke="#756b75" d="M270.833,-231.48C280.603,-218.01 293.015,-200.896 302.987,-187.147"/>
<ellipse fill="none" stroke="#756b75" cx="268.345" cy="-234.911" rx="4.00002" ry="4.00002"/>
<polygon fill="#756b75" stroke="#756b75" points="303.264,-186.764 312.778,-181.311 306.2,-182.717 309.135,-178.669 309.135,-178.669 309.135,-178.669 306.2,-182.717 305.493,-176.027 303.264,-186.764 303.264,-186.764"/>
</g>
</g>
</svg>
